<?xml version="1.0" encoding="UTF-8" standalone="no"?>
<!-- Created with Inkscape (http://www.inkscape.org/) -->

<svg
   version="1.1"
   id="svg2"
   width="187.192"
   height="166.10001"
   viewBox="0 0 187.192 166.10001"
   xmlns="http://www.w3.org/2000/svg"
   xmlns:svg="http://www.w3.org/2000/svg">
  <defs
     id="defs6">
    <clipPath
       clipPathUnits="userSpaceOnUse"
       id="clipPath18">
      <path
         d="M 0,0 H 612 V 792 H 0 Z"
         id="path16" />
    </clipPath>
    <clipPath
       clipPathUnits="userSpaceOnUse"
       id="clipPath32">
      <path
         d="M 0,0 H 273.6 V 249.408 H 0 Z"
         id="path30" />
    </clipPath>
    <clipPath
       clipPathUnits="userSpaceOnUse"
       id="clipPath42">
      <path
         d="M 0,0 H 460.8 V 345.6 H 0 Z"
         id="path40" />
    </clipPath>
    <clipPath
       clipPathUnits="userSpaceOnUse"
       id="clipPath52">
      <path
         d="M 57.6,38.016 H 414.72 V 304.128 H 57.6 Z"
         id="path50" />
    </clipPath>
    <clipPath
       clipPathUnits="userSpaceOnUse"
       id="clipPath62">
      <path
         d="M 57.6,38.016 H 414.72 V 304.128 H 57.6 Z"
         id="path60" />
    </clipPath>
  </defs>
  <g
     id="g8"
     transform="matrix(1.3333333,0,0,-1.3333333,0,166.1)">
    <g
       id="g10"
       transform="translate(-18.785,-667.425)">
      <g
         id="g12">
        <g
           id="g14"
           clip-path="url(#clipPath18)">
          <g
             id="g20"
             transform="translate(72,720)">
            <g
               id="g22"
               transform="matrix(0.5,0,0,0.5,-25.5,-26.352)">
              <g
                 id="g24"
                 transform="translate(-51,-52.704)">
                <g
                   id="g26">
                  <g
                     id="g28"
                     clip-path="url(#clipPath32)">
                    <g
                       id="g34"
                       transform="translate(-99.648,-46.656)">
                      <g
                         id="g36">
                        <g
                           id="g38"
                           clip-path="url(#clipPath42)">
                          <path
                             d="M 0,0 H 460.8 V 345.6 H 0 Z"
                             style="fill:#ffffff;fill-opacity:1;fill-rule:nonzero;stroke:none"
                             id="path44" />
                          <g
                             id="g46">
                            <g
                               id="g48"
                               clip-path="url(#clipPath52)">
                              <path
                                 d="m 236.16,234.12471 0.004,0.17079 0.0294,0.51038 0.0796,0.84396 0.15426,1.16758 0.25261,1.47747 0.37372,1.76996 0.51634,2.04162 0.67907,2.28928 0.86025,2.51001 1.05809,2.70125 1.27055,2.86076 1.49552,2.98668 1.73067,3.07753 1.97364,3.13225 2.22191,3.15019 2.4729,3.13112 2.72402,3.07521 2.97263,2.98306 3.21607,2.85566 3.45177,2.69437 3.67712,2.50089 3.88966,2.27729 4.08699,2.02591 4.26682,1.74934 4.42701,1.45044 4.56559,1.13221 4.68073,0.79782 4.77082,0.45055 4.83448,0.0937 4.87047,-0.26933 4.87789,-0.63528 4.85599,-1.00086 4.8043,-1.36294 4.72265,-1.71851 4.61105,-2.06476 4.46979,-2.39904 4.29946,-2.719 4.10083,-3.02251 3.87497,-3.30773 3.62315,-3.57308 3.34688,-3.81736 3.04787,-4.03958 2.72805,-4.23914 2.3895,-4.4157 2.03447,-4.56923 1.66537,-4.69996 1.28472,-4.80843 0.89515,-4.8954 0.49933,-4.96184 0.10004,-5.00894 -0.29995,-5.03807 -0.69784,-5.05068 -1.09089,-5.04841 -1.47633,-5.03291 -1.85152,-5.00588 -2.2139,-4.96907 -2.56097,-4.92418 -2.89044,-4.87285 -3.2001,-4.81667 -3.48797,-4.75709 -3.75222,-4.69547 -3.99123,-4.63299 -4.20362,-4.5707 -4.38822,-4.50941 -4.54409,-4.44982 -4.67058,-4.39237 -4.76723,-4.33733 -4.83389,-4.28478 -4.87063,-4.23458 -4.87781,-4.18644 -4.85599,-4.13989 -4.80604,-4.09427 -4.729,-4.04882 -4.62619,-4.00267 -4.49912,-3.95481 -4.3495,-3.90417 -4.17923,-3.84967 -3.99037,-3.79014 -3.78515,-3.724474 -3.56589,-3.651558 -3.33505,-3.570342 -3.09516,-3.479849 -2.8488,-3.379202 -2.59862,-3.267642 -2.34722,-3.144546 -2.09727,-3.009439 -1.85134,-2.862016 -1.61196,-2.702139 -1.38162,-2.529853 -1.16262,-2.345385 -0.95721,-2.14914 -0.76746,-1.941705 -0.59529,-1.723836 -0.44243,-1.496449 -0.31039,-1.260608 -0.20052,-1.017511 -0.11392,-0.768464 -0.0514,-0.514872 -0.0137,-0.25821 h -0.001 l -0.0137,0.25821 -0.0514,0.514872 -0.11391,0.768464 -0.20052,1.017511 -0.31039,1.260608 -0.44243,1.496449 -0.59529,1.723836 -0.76746,1.941705 -0.95721,2.14914 -1.16262,2.345385 -1.38162,2.529853 -1.61197,2.702139 -1.85133,2.862016 -2.09727,3.009439 -2.34722,3.144546 -2.59862,3.267642 -2.8488,3.379202 -3.09516,3.479849 -3.33505,3.570342 -3.56589,3.651558 -3.78515,3.724474 -3.99038,3.79014 -4.17922,3.84967 -4.3495,3.90417 -4.49912,3.95481 -4.62619,4.00267 -4.729,4.04882 -4.80604,4.09427 -4.85599,4.13989 -4.87781,4.18644 -4.87063,4.23458 -4.83389,4.28478 -4.76723,4.33733 -4.67058,4.39237 -4.5441,4.44982 -4.38821,4.50941 -4.20362,4.5707 -3.99123,4.63299 -3.75222,4.69547 -3.48797,4.75709 -3.2001,4.81667 -2.89044,4.87285 -2.56097,4.92418 -2.2139,4.96907 -1.85152,5.00588 -1.47633,5.03291 -1.09089,5.04841 -0.69785,5.05068 -0.29994,5.03807 0.10004,5.00894 0.49933,4.96184 0.89515,4.8954 1.28472,4.80843 1.66537,4.69996 2.03447,4.56923 2.3895,4.4157 2.72805,4.23914 3.04787,4.03958 3.34688,3.81736 3.62315,3.57308 3.87497,3.30773 4.10083,3.02251 4.29946,2.719 4.46979,2.39904 4.61105,2.06476 4.72264,1.71851 4.80431,1.36294 4.85599,1.00086 4.87789,0.63528 4.87047,0.26933 4.83448,-0.0937 4.77082,-0.45055 4.68073,-0.79782 4.56559,-1.13221 4.42701,-1.45044 4.26682,-1.74934 4.08698,-2.02591 3.88967,-2.27729 3.67712,-2.50089 3.45177,-2.69437 3.21607,-2.85566 2.97263,-2.98306 2.72402,-3.07521 2.4729,-3.13112 2.22191,-3.15019 1.97363,-3.13225 1.73068,-3.07753 1.49552,-2.98668 1.27055,-2.86076 1.05809,-2.70125 0.86025,-2.51001 0.67907,-2.28928 0.51634,-2.04162 0.37372,-1.76996 0.25261,-1.47747 0.15426,-1.16758 0.0796,-0.84396 0.0294,-0.51038 0.004,-0.17079 z"
                                 style="fill:#fc6255;fill-opacity:0.5;fill-rule:nonzero;stroke:#fc6255;stroke-width:1;stroke-linecap:butt;stroke-linejoin:miter;stroke-miterlimit:10;stroke-dasharray:none;stroke-opacity:0.5"
                                 id="path54" />
                            </g>
                          </g>
                          <g
                             id="g56">
                            <g
                               id="g58"
                               clip-path="url(#clipPath62)">
                              <path
                                 d="m 236.16,234.12471 0.11324,1.52513 0.40687,2.64505 0.89006,3.81158 1.53932,4.79929 1.05809,2.70125 1.27055,2.86076 1.49552,2.98668 1.73067,3.07753 1.97364,3.13225 2.22191,3.15019 2.4729,3.13112 2.72402,3.07521 2.97263,2.98306 3.21607,2.85566 3.45177,2.69437 3.67712,2.50089 3.88966,2.27729 4.08699,2.02591 4.26682,1.74934 4.42701,1.45044 4.56559,1.13221 4.68073,0.79782 4.77082,0.45055 4.83448,0.0937 4.87047,-0.26933 4.87789,-0.63528 4.85599,-1.00086 4.8043,-1.36294 4.72265,-1.71851 4.61105,-2.06476 4.46979,-2.39904 4.29946,-2.719 4.10083,-3.02251 3.87497,-3.30773 3.62315,-3.57308 3.34688,-3.81736 3.04787,-4.03958 2.72805,-4.23914 2.3895,-4.4157 2.03447,-4.56923 1.66537,-4.69996 1.28472,-4.80843 0.89515,-4.8954 0.49933,-4.96184 0.10004,-5.00894 -0.29995,-5.03807 -0.69784,-5.05068 -1.09089,-5.04841 -1.47633,-5.03291 -1.85152,-5.00588 -2.2139,-4.96907 -2.56097,-4.92418 -2.89044,-4.87285 -3.2001,-4.81667 -3.48797,-4.75709 -3.75222,-4.69547 -3.99123,-4.63299 -4.20362,-4.5707 -4.38822,-4.50941 -4.54409,-4.44982 -9.43781,-8.7297 -9.70452,-8.51936 -28.39415,-24.4269 -8.52873,-7.75384 -7.77552,-7.514614 -6.90094,-7.2219 -3.09516,-3.479849 -2.8488,-3.379202 -2.59862,-3.267642 -2.34722,-3.144546 -2.09727,-3.009439 -1.85134,-2.862016 -2.99358,-5.231992 -2.11983,-4.494525 -1.36275,-3.665541 -0.75282,-2.757057 -0.36586,-2.300847 -0.0147,-0.25821 -0.0651,0.773082 -0.31443,1.785975 -0.75282,2.757057 -1.36275,3.665541 -2.11983,4.494525 -1.38162,2.529853 -1.61197,2.702139 -1.85133,2.862016 -2.09727,3.009439 -2.34722,3.144546 -2.59862,3.267642 -2.8488,3.379202 -3.09516,3.479849 -3.33505,3.570342 -7.35104,7.376032 -8.1696,7.63981 -8.84862,7.85898 -14.16123,12.14576 -14.60443,12.56091 -9.60112,8.62211 -4.67058,4.39237 -4.5441,4.44982 -4.38821,4.50941 -4.20362,4.5707 -3.99123,4.63299 -3.75222,4.69547 -3.48797,4.75709 -3.2001,4.81667 -2.89044,4.87285 -2.56097,4.92418 -2.2139,4.96907 -1.85152,5.00588 -1.47633,5.03291 -1.09089,5.04841 -0.69785,5.05068 -0.29994,5.03807 0.10004,5.00894 0.49933,4.96184 0.89515,4.8954 1.28472,4.80843 1.66537,4.69996 2.03447,4.56923 2.3895,4.4157 2.72805,4.23914 3.04787,4.03958 3.34688,3.81736 3.62315,3.57308 3.87497,3.30773 4.10083,3.02251 4.29946,2.719 4.46979,2.39904 4.61105,2.06476 4.72264,1.71851 4.80431,1.36294 4.85599,1.00086 4.87789,0.63528 4.87047,0.26933 4.83448,-0.0937 4.77082,-0.45055 4.68073,-0.79782 4.56559,-1.13221 4.42701,-1.45044 4.26682,-1.74934 4.08698,-2.02591 3.88967,-2.27729 3.67712,-2.50089 3.45177,-2.69437 3.21607,-2.85566 2.97263,-2.98306 2.72402,-3.07521 2.4729,-3.13112 2.22191,-3.15019 1.97363,-3.13225 1.73068,-3.07753 1.49552,-2.98668 1.27055,-2.86076 1.05809,-2.70125 1.53932,-4.79929 0.89006,-3.81158 0.48647,-3.48901 0.0336,-0.68117 v 0"
                                 style="fill:none;stroke:#fc6255;stroke-width:1.5;stroke-linecap:square;stroke-linejoin:round;stroke-miterlimit:10;stroke-dasharray:none;stroke-opacity:1"
                                 id="path64" />
                            </g>
                          </g>
                        </g>
                      </g>
                    </g>
                  </g>
                </g>
              </g>
            </g>
          </g>
        </g>
      </g>
    </g>
  </g>
</svg>
